<svg xmlns="http://www.w3.org/2000/svg" width="55.125" height="50.906" viewBox="0 0 55.125 50.906">
  <defs>
    <style>
      .cls-1 {
        fill-rule: evenodd;
      }
    </style>
  </defs>
  <path id="Path_302" data-name="Path 302" class="cls-1" d="M12.483,1.729l-11.25,13.5L.108,16.635l1.125,1.406,24.75,31.5,1.688,2.25,1.687-2.25,24.75-31.5,1.125-1.406-1.125-1.406-11.25-13.5L42.3.885H13.046ZM23.452,5.385l-6.047,9H7.7l7.594-9Zm16.594,0,7.594,9h-9.7l-6.047-9Zm-7.594,9H22.89l4.781-7.031Zm-15.469,4.5,5.344,18.844L7.421,18.885Zm16.594,0L27.671,39.838,21.624,18.885Zm14.344,0L33.015,37.729l5.343-18.844Z" transform="translate(-0.108 -0.885)"/>
</svg>
