<svg xmlns="http://www.w3.org/2000/svg" width="72.096" height="42.8" viewBox="0 0 72.096 42.8">
  <defs>
    <style>
      .cls-1 {
        stroke: rgba(0,0,0,0);
      }
    </style>
  </defs>
  <path id="Union_1" data-name="Union 1" class="cls-1" d="M40.548,41.8V0H55.3Q71.1,0,71.1,13.321a12.781,12.781,0,0,1-4.532,10.188Q62.031,27.4,54.452,27.4H49.963V41.8Zm9.415-21.542h3.7q7.519,0,7.52-6.587,0-6.442-7.52-6.442h-3.7ZM21.133,41.8V27.4H16.644q-7.579,0-12.111-3.891A12.784,12.784,0,0,1,0,13.321Q0,0,15.8,0H30.548V41.8ZM9.911,13.671q0,6.588,7.52,6.587h3.7V7.229h-3.7Q9.91,7.229,9.911,13.671Z" transform="translate(0.5 0.5)"/>
</svg>
